<svg width="456" height="67" viewBox="0 0 456 67" fill="none" xmlns="http://www.w3.org/2000/svg">
<path d="M17.75 26.875C17.75 31.125 18.15 34.2 18.95 36.1C19.8 37.95 21.525 38.875 24.125 38.875C26.775 38.875 28.5 37.95 29.3 36.1C30.1 34.25 30.5 31.175 30.5 26.875C30.5 22.525 30.1 19.45 29.3 17.65C28.55 15.8 26.85 14.875 24.2 14.875C21.55 14.875 19.8 15.825 18.95 17.725C18.15 19.575 17.75 22.625 17.75 26.875ZM48.05 26.875C48.05 36.025 46.15 42.675 42.35 46.825C38.55 50.925 32.475 52.975 24.125 52.975C15.825 52.975 9.75 50.9 5.9 46.75C2.1 42.6 0.2 35.975 0.2 26.875C0.2 17.725 2.1 11.1 5.9 7C9.7 2.85 15.775 0.774998 24.125 0.774998C32.475 0.774998 38.55 2.85 42.35 7C46.15 11.1 48.05 17.725 48.05 26.875ZM73.6191 14.125H90.4191V52H73.7691V50.2C70.5691 52.05 67.7191 52.975 65.2191 52.975C59.9191 52.975 56.2191 51.45 54.1191 48.4C52.0191 45.3 50.9691 40.4 50.9691 33.7V14.125H67.7691V32.575C67.7691 34.825 67.9691 36.375 68.3691 37.225C68.7691 38.075 69.4191 38.5 70.3191 38.5L73.6191 38.05V14.125ZM111.43 52H94.6303V14.125H111.43V17.65C114.58 14.65 117.23 13.15 119.38 13.15V28.75C117.68 28.75 115.48 29.425 112.78 30.775L111.43 31.45V52ZM138.506 52V1.75H176.156V15.625H155.906V19.9H171.656V33.625H155.906V38.125H176.156V52H138.506ZM184.768 33.25L177.343 14.125H195.343L198.343 24.775L201.343 14.125H217.843L211.168 32.95L217.618 52H199.468L196.468 42.475L193.993 52H177.343L184.768 33.25ZM244.474 13.15C249.774 13.15 253.574 14.85 255.874 18.25C258.174 21.65 259.324 26.725 259.324 33.475C259.324 40.175 258.049 45.1 255.499 48.25C252.999 51.4 248.774 52.975 242.824 52.975C241.624 52.975 239.924 52.725 237.724 52.225L236.674 52V66.625H219.874V14.125H236.449L236.599 16.075C239.049 14.125 241.674 13.15 244.474 13.15ZM239.074 39.4C241.274 39.4 242.374 37.2 242.374 32.8C242.374 30.45 242.124 28.85 241.624 28C241.124 27.15 240.274 26.725 239.074 26.725L236.674 27.25V39.175C237.324 39.325 238.124 39.4 239.074 39.4ZM278.473 37.975C278.523 39.725 279.648 40.6 281.848 40.6C286.848 40.6 291.848 40.45 296.848 40.15L299.773 39.925L300.148 50.8C293.498 52.25 286.873 52.975 280.273 52.975C273.723 52.975 268.973 51.475 266.023 48.475C263.123 45.425 261.673 40.525 261.673 33.775C261.673 26.975 263.248 21.85 266.398 18.4C269.548 14.9 274.448 13.15 281.098 13.15C287.798 13.15 292.773 14.575 296.023 17.425C299.273 20.275 300.898 24.65 300.898 30.55L300.148 37.975H278.473ZM284.098 28.825C284.098 27.375 283.873 26.35 283.423 25.75C283.023 25.15 282.298 24.85 281.248 24.85C280.198 24.85 279.473 25.15 279.073 25.75C278.673 26.35 278.448 27.375 278.398 28.825H284.098ZM320.83 52H304.03V14.125H320.83V17.65C323.98 14.65 326.63 13.15 328.78 13.15V28.75C327.08 28.75 324.88 29.425 322.18 30.775L320.83 31.45V52ZM350.017 27.7V35.5C350.017 36.75 350.167 37.6 350.467 38.05C350.817 38.45 351.492 38.65 352.492 38.65L355.867 38.575L356.092 51.625C351.792 52.525 348.492 52.975 346.192 52.975C341.542 52.975 338.217 52.025 336.217 50.125C334.217 48.175 333.217 44.6 333.217 39.4V27.7H330.292V14.125H333.217V6.625H350.017V14.125H356.092V27.7H350.017ZM359.474 52V14.125H376.274V52H359.474ZM359.399 11.725V0.249996H376.349V11.725H359.399ZM412.67 26.875C406.47 26.175 402.245 25.825 399.995 25.825C397.745 25.825 396.62 26.025 396.62 26.425C396.62 26.725 398.57 27.1 402.47 27.55C406.42 27.95 409.295 29.075 411.095 30.925C412.895 32.725 413.795 35.825 413.795 40.225C413.795 44.625 412.42 47.85 409.67 49.9C406.97 51.95 402.795 52.975 397.145 52.975C393.995 52.975 390.995 52.8 388.145 52.45C385.295 52.15 383.245 51.825 381.995 51.475L380.045 50.95L380.42 39.625C386.62 40.475 390.92 40.9 393.32 40.9C395.77 40.9 396.995 40.675 396.995 40.225C396.995 39.975 395.02 39.6 391.07 39.1C387.12 38.55 384.245 37.375 382.445 35.575C380.695 33.725 379.82 30.85 379.82 26.95C379.82 21.85 381.27 18.275 384.17 16.225C387.12 14.175 391.27 13.15 396.62 13.15C402.32 13.15 407.195 13.65 411.245 14.65L413.27 15.1L412.67 26.875ZM433.014 37.975C433.064 39.725 434.189 40.6 436.389 40.6C441.389 40.6 446.389 40.45 451.389 40.15L454.314 39.925L454.689 50.8C448.039 52.25 441.414 52.975 434.814 52.975C428.264 52.975 423.514 51.475 420.564 48.475C417.664 45.425 416.214 40.525 416.214 33.775C416.214 26.975 417.789 21.85 420.939 18.4C424.089 14.9 428.989 13.15 435.639 13.15C442.339 13.15 447.314 14.575 450.564 17.425C453.814 20.275 455.439 24.65 455.439 30.55L454.689 37.975H433.014ZM438.639 28.825C438.639 27.375 438.414 26.35 437.964 25.75C437.564 25.15 436.839 24.85 435.789 24.85C434.739 24.85 434.014 25.15 433.614 25.75C433.214 26.35 432.989 27.375 432.939 28.825H438.639Z" fill="#FCDB64"/>
</svg>
