<svg width="295" height="68" viewBox="0 0 295 68" fill="none" xmlns="http://www.w3.org/2000/svg">
<path d="M6.375 53L5.38188 53.1171L5.48598 54H6.375V53ZM0.45 2.75V1.75H-0.674838L-0.54312 2.8671L0.45 2.75ZM17.775 2.75L18.7723 2.6768L18.7043 1.75H17.775V2.75ZM20.175 35.45L19.1777 35.5232L19.2457 36.45H20.175V35.45ZM21.525 35.45V36.45H22.4249L22.5195 35.555L21.525 35.45ZM24.9 3.5V2.5H24.0001L23.9055 3.39495L24.9 3.5ZM43.875 3.5L44.8682 3.38343L44.7645 2.5H43.875V3.5ZM47.625 35.45L46.6318 35.5666L46.7355 36.45H47.625V35.45ZM48.975 35.45V36.45H49.9302L49.974 35.4958L48.975 35.45ZM50.475 2.75V1.75H49.5198L49.4761 2.70417L50.475 2.75ZM67.95 2.75L68.944 2.85978L69.0665 1.75H67.95V2.75ZM62.4 53V54H63.2956L63.394 53.1098L62.4 53ZM36.975 53L35.9782 53.0798L36.0519 54H36.975V53ZM34.5 22.1L35.4968 22.0202L35.4302 21.188L34.5995 21.105L34.5 22.1ZM33.75 22.025L33.8495 21.03L32.8369 20.9287L32.7534 21.943L33.75 22.025ZM31.2 53V54H32.1211L32.1966 53.082L31.2 53ZM7.36812 52.8829L1.44312 2.6329L-0.54312 2.8671L5.38188 53.1171L7.36812 52.8829ZM0.45 3.75H17.775V1.75H0.45V3.75ZM16.7777 2.8232L19.1777 35.5232L21.1723 35.3768L18.7723 2.6768L16.7777 2.8232ZM20.175 36.45H21.525V34.45H20.175V36.45ZM22.5195 35.555L25.8945 3.60505L23.9055 3.39495L20.5305 35.3449L22.5195 35.555ZM24.9 4.5H43.875V2.5H24.9V4.5ZM42.8818 3.61657L46.6318 35.5666L48.6182 35.3334L44.8682 3.38343L42.8818 3.61657ZM47.625 36.45H48.975V34.45H47.625V36.45ZM49.974 35.4958L51.474 2.79582L49.4761 2.70417L47.9761 35.4042L49.974 35.4958ZM50.475 3.75H67.95V1.75H50.475V3.75ZM66.956 2.64022L61.406 52.8902L63.394 53.1098L68.944 2.85978L66.956 2.64022ZM62.4 52H36.975V54H62.4V52ZM37.9718 52.9202L35.4968 22.0202L33.5032 22.1798L35.9782 53.0798L37.9718 52.9202ZM34.5995 21.105L33.8495 21.03L33.6505 23.02L34.4005 23.095L34.5995 21.105ZM32.7534 21.943L30.2034 52.918L32.1966 53.082L34.7466 22.107L32.7534 21.943ZM31.2 52H6.375V54H31.2V52ZM87.5279 53V54H88.5279V53H87.5279ZM70.7279 53H69.7279V54H70.7279V53ZM70.7279 1.25V0.249996H69.7279V1.25H70.7279ZM87.5279 1.25H88.5279V0.249996H87.5279V1.25ZM87.5279 15.425H86.5279V16.6969L87.7639 16.3968L87.5279 15.425ZM106.953 18.425L106.155 19.0273L106.161 19.036L106.953 18.425ZM110.253 53V54H111.253V53H110.253ZM93.4529 53H92.4529V54H93.4529V53ZM90.6029 28.625V27.625H90.5301L90.4581 27.6355L90.6029 28.625ZM87.5279 29.075L87.3831 28.0855L86.5279 28.2107V29.075H87.5279ZM87.5279 52H70.7279V54H87.5279V52ZM71.7279 53V1.25H69.7279V53H71.7279ZM70.7279 2.25H87.5279V0.249996H70.7279V2.25ZM86.5279 1.25V15.425H88.5279V1.25H86.5279ZM87.7639 16.3968C91.2449 15.5514 93.8258 15.15 95.5529 15.15V13.15C93.5801 13.15 90.811 13.5986 87.2919 14.4532L87.7639 16.3968ZM95.5529 15.15C100.859 15.15 104.277 16.5378 106.155 19.0272L107.751 17.8228C105.329 14.6122 101.147 13.15 95.5529 13.15V15.15ZM106.161 19.036C108.146 21.6068 109.253 26.3125 109.253 33.425H111.253C111.253 26.2375 110.16 20.9432 107.745 17.8139L106.161 19.036ZM109.253 33.425V53H111.253V33.425H109.253ZM110.253 52H93.4529V54H110.253V52ZM94.4529 53V35.15H92.4529V53H94.4529ZM94.4529 35.15C94.4529 32.933 94.2155 31.135 93.6568 29.856C93.3726 29.2052 92.9846 28.6409 92.4565 28.2379C91.9151 27.8247 91.2831 27.625 90.6029 27.625V29.625C90.8727 29.625 91.072 29.6972 91.2431 29.8278C91.4275 29.9685 91.6333 30.2198 91.824 30.6565C92.2154 31.5525 92.4529 33.017 92.4529 35.15H94.4529ZM90.4581 27.6355L87.3831 28.0855L87.6727 30.0645L90.7477 29.6145L90.4581 27.6355ZM86.5279 29.075V53H88.5279V29.075H86.5279ZM118.437 53L117.451 53.166L117.592 54H118.437V53ZM112.062 15.125V14.125H110.88L111.076 15.291L112.062 15.125ZM129.912 15.125L130.906 15.0125L130.805 14.125H129.912V15.125ZM132.612 38.975L131.619 39.0875L131.719 39.975H132.612V38.975ZM133.662 38.975V39.975H134.567L134.657 39.0751L133.662 38.975ZM136.062 15.125V14.125H135.158L135.067 15.0249L136.062 15.125ZM152.937 15.125L153.923 15.2926L154.122 14.125H152.937V15.125ZM144.012 67.625V68.625H144.857L144.998 67.7926L144.012 67.625ZM125.562 67.625L124.611 67.3176L124.188 68.625H125.562V67.625ZM130.287 53L131.239 53.3074L131.661 52H130.287V53ZM119.423 52.834L113.048 14.959L111.076 15.291L117.451 53.166L119.423 52.834ZM112.062 16.125H129.912V14.125H112.062V16.125ZM128.919 15.2375L131.619 39.0875L133.606 38.8625L130.906 15.0125L128.919 15.2375ZM132.612 39.975H133.662V37.975H132.612V39.975ZM134.657 39.0751L137.057 15.2251L135.067 15.0249L132.667 38.8749L134.657 39.0751ZM136.062 16.125H152.937V14.125H136.062V16.125ZM151.951 14.9574L143.026 67.4574L144.998 67.7926L153.923 15.2926L151.951 14.9574ZM144.012 66.625H125.562V68.625H144.012V66.625ZM126.514 67.9324L131.239 53.3074L129.336 52.6926L124.611 67.3176L126.514 67.9324ZM130.287 52H118.437V54H130.287V52ZM188.393 2.75H189.393V1.75H188.393V2.75ZM189.443 38.75L188.792 39.5093L188.805 39.5203L188.818 39.5309L189.443 38.75ZM196.718 38.75L196.067 37.9907L196.718 38.75ZM197.768 2.75V1.75H196.768V2.75H197.768ZM215.168 2.75H216.168V1.75H215.168V2.75ZM209.843 49.7L210.469 50.4798L210.476 50.4744L209.843 49.7ZM176.318 49.775L175.699 50.5602L176.318 49.775ZM170.993 2.75V1.75H169.993V2.75H170.993ZM187.393 2.75V35.675H189.393V2.75H187.393ZM187.393 35.675C187.393 37.2508 187.77 38.6328 188.792 39.5093L190.094 37.9907C189.716 37.6672 189.393 36.9992 189.393 35.675H187.393ZM188.818 39.5309C189.838 40.3465 191.347 40.65 193.118 40.65V38.65C191.489 38.65 190.548 38.3535 190.068 37.9691L188.818 39.5309ZM193.118 40.65C194.879 40.65 196.387 40.3506 197.369 39.5093L196.067 37.9907C195.649 38.3494 194.757 38.65 193.118 38.65V40.65ZM197.369 39.5093C198.391 38.6328 198.768 37.2508 198.768 35.675H196.768C196.768 36.9992 196.445 37.6672 196.067 37.9907L197.369 39.5093ZM198.768 35.675V2.75H196.768V35.675H198.768ZM197.768 3.75H215.168V1.75H197.768V3.75ZM214.168 2.75V34.7H216.168V2.75H214.168ZM214.168 34.7C214.168 41.6659 212.424 46.3002 209.21 48.9256L210.476 50.4744C214.362 47.2998 216.168 41.9341 216.168 34.7H214.168ZM209.217 48.9202C205.93 51.559 200.607 52.975 193.043 52.975V54.975C200.779 54.975 206.656 53.541 210.469 50.4798L209.217 48.9202ZM193.043 52.975C185.528 52.975 180.226 51.5837 176.937 48.9898L175.699 50.5602C179.51 53.5663 185.358 54.975 193.043 54.975V52.975ZM176.937 48.9898C173.737 46.4656 171.993 41.9169 171.993 35H169.993C169.993 42.1831 171.799 47.4844 175.699 50.5602L176.937 48.9898ZM171.993 35V2.75H169.993V35H171.993ZM170.993 3.75H188.393V1.75H170.993V3.75ZM257.59 17.225L257.484 18.2194L258.553 18.3332L258.589 17.2583L257.59 17.225ZM236.59 16.4L236.877 17.3578L236.905 17.3496L236.932 17.3398L236.59 16.4ZM236.74 18.725L236.293 19.6194L236.74 18.725ZM242.365 20.225L242.148 21.2012L242.151 21.2019L242.365 20.225ZM250.165 22.325L249.834 23.2689L249.848 23.2738L249.863 23.2782L250.165 22.325ZM255.64 25.175L255.024 25.963L255.038 25.9736L255.052 25.9837L255.64 25.175ZM258.865 29.675L257.901 29.9426L257.906 29.9588L257.911 29.9748L258.865 29.675ZM254.74 50.075L255.366 50.8547L254.74 50.075ZM229.69 53.375L229.562 54.3668L229.564 54.3671L229.69 53.375ZM221.59 52.025L221.82 51.0519L221.815 51.0506L221.59 52.025ZM218.665 51.35L217.666 51.2936L217.619 52.1349L218.44 52.3244L218.665 51.35ZM219.415 38.075L219.557 37.0852L218.478 36.93L218.416 38.0186L219.415 38.075ZM241.24 36.95L240.855 37.8731L240.889 37.8871L240.924 37.8987L241.24 36.95ZM236.365 35.975L236.21 36.9629L236.216 36.9638L236.365 35.975ZM222.04 30.875L221.355 31.6036L221.362 31.6107L221.37 31.6176L222.04 30.875ZM223.165 5.525L222.555 4.73238L223.165 5.525ZM254.89 3.2L255.054 2.2136L255.045 2.21214L255.037 2.21083L254.89 3.2ZM258.04 3.725L259.039 3.75832L259.068 2.88264L258.204 2.73861L258.04 3.725ZM257.696 16.2306C250.642 15.4802 245.472 15.1 242.215 15.1V17.1C245.358 17.1 250.438 17.4698 257.484 18.2194L257.696 16.2306ZM242.215 15.1C240.608 15.1 239.319 15.125 238.355 15.1764C237.874 15.2021 237.463 15.2349 237.128 15.2763C236.813 15.3153 236.498 15.3694 236.248 15.4602L236.932 17.3398C236.931 17.3402 236.94 17.3369 236.962 17.331C236.984 17.3253 237.014 17.3184 237.053 17.3105C237.133 17.2947 237.238 17.2779 237.374 17.2612C237.645 17.2276 238.005 17.1979 238.462 17.1736C239.374 17.125 240.622 17.1 242.215 17.1V15.1ZM236.302 15.4422C235.887 15.5669 235.493 15.8023 235.214 16.1938C234.938 16.5803 234.84 17.0248 234.84 17.45H236.84C236.84 17.3874 236.847 17.3542 236.85 17.3426C236.853 17.3329 236.852 17.3409 236.841 17.3562C236.83 17.372 236.819 17.3806 236.816 17.382C236.816 17.3824 236.832 17.3713 236.877 17.3578L236.302 15.4422ZM234.84 17.45C234.84 17.919 234.972 18.3668 235.248 18.7579C235.517 19.1387 235.887 19.4164 236.293 19.6194L237.187 17.8306C236.993 17.7336 236.913 17.6488 236.882 17.6046C236.858 17.5707 236.84 17.531 236.84 17.45H234.84ZM236.293 19.6194C236.698 19.8222 237.415 20.045 238.338 20.2912C239.295 20.5464 240.567 20.8498 242.148 21.2012L242.582 19.2488C241.013 18.9001 239.772 18.6036 238.854 18.3588C237.902 18.105 237.382 17.9278 237.187 17.8306L236.293 19.6194ZM242.151 21.2019C245.33 21.8974 247.887 22.5874 249.834 23.2689L250.495 21.3811C248.442 20.6626 245.799 19.9526 242.579 19.2481L242.151 21.2019ZM249.863 23.2782C251.806 23.8944 253.523 24.7906 255.024 25.963L256.255 24.387C254.556 23.0594 252.624 22.0556 250.467 21.3718L249.863 23.2782ZM255.052 25.9837C256.537 27.064 257.467 28.3806 257.901 29.9426L259.828 29.4074C259.262 27.3694 258.043 25.686 256.228 24.3663L255.052 25.9837ZM257.911 29.9748C258.417 31.586 258.69 33.8458 258.69 36.8H260.69C260.69 33.7542 260.412 31.264 259.819 29.3752L257.911 29.9748ZM258.69 36.8C258.69 42.8426 257.083 46.9106 254.114 49.2953L255.366 50.8547C258.996 47.9394 260.69 43.1574 260.69 36.8H258.69ZM254.114 49.2953C251.068 51.7414 246.359 53.05 239.815 53.05V55.05C246.57 55.05 251.812 53.7086 255.366 50.8547L254.114 49.2953ZM239.815 53.05C236.661 53.05 233.329 52.8283 229.816 52.3829L229.564 54.3671C233.151 54.8217 236.568 55.05 239.815 55.05V53.05ZM229.817 52.3832C226.329 51.9347 223.67 51.4899 221.82 51.0519L221.359 52.9981C223.31 53.4601 226.051 53.9153 229.562 54.3668L229.817 52.3832ZM221.815 51.0506L218.89 50.3756L218.44 52.3244L221.365 52.9994L221.815 51.0506ZM219.663 51.4064L220.413 38.1314L218.416 38.0186L217.666 51.2936L219.663 51.4064ZM219.273 39.0648C226.946 40.1682 233.273 40.725 238.24 40.725V38.725C233.406 38.725 227.184 38.1818 219.557 37.0852L219.273 39.0648ZM238.24 40.725C239.583 40.725 240.726 40.5812 241.569 40.2083C242.003 40.0167 242.402 39.7446 242.695 39.3565C242.997 38.9559 243.14 38.4897 243.14 38H241.14C241.14 38.0853 241.121 38.1222 241.097 38.1528C241.065 38.196 240.977 38.2833 240.76 38.3792C240.303 38.5813 239.497 38.725 238.24 38.725V40.725ZM243.14 38C243.14 37.5331 242.993 37.0838 242.674 36.7117C242.37 36.3571 241.967 36.1382 241.556 36.0013L240.924 37.8987C241.113 37.9618 241.16 38.0179 241.156 38.0133C241.152 38.0092 241.145 37.9988 241.141 37.9859C241.136 37.9743 241.14 37.976 241.14 38H243.14ZM241.624 36.0269C241.222 35.8592 240.575 35.6998 239.767 35.5382C238.933 35.3713 237.847 35.1873 236.514 34.9862L236.216 36.9638C237.533 37.1627 238.585 37.3412 239.375 37.4993C240.192 37.6627 240.658 37.7908 240.855 37.8731L241.624 36.0269ZM236.52 34.9871C229.546 33.8912 225.028 32.2234 222.71 30.1324L221.37 31.6176C224.152 34.1266 229.183 35.8588 236.21 36.9629L236.52 34.9871ZM222.725 30.1464C220.513 28.0673 219.29 24.5722 219.29 19.4H217.29C217.29 24.8278 218.567 28.9827 221.355 31.6036L222.725 30.1464ZM219.29 19.4C219.29 12.7614 220.894 8.53331 223.775 6.31762L222.555 4.73238C218.936 7.51669 217.29 12.5386 217.29 19.4H219.29ZM223.775 6.31762C226.769 4.0145 231.505 2.775 238.165 2.775V0.774998C231.325 0.774998 226.061 2.03549 222.555 4.73238L223.775 6.31762ZM238.165 2.775C242.852 2.775 248.376 3.24398 254.743 4.18916L255.037 2.21083C248.604 1.25601 242.978 0.774998 238.165 0.774998V2.775ZM254.725 4.18639L257.875 4.7114L258.204 2.73861L255.054 2.2136L254.725 4.18639ZM257.04 3.69168L256.59 17.1917L258.589 17.2583L259.039 3.75832L257.04 3.69168ZM293.224 23.975L292.345 23.4979L292.34 23.5071L293.224 23.975ZM288.049 29.225L287.473 28.408L287.468 28.4113L288.049 29.225ZM282.124 35.3L281.127 35.2233L281.126 35.2354L281.126 35.2474L282.124 35.3ZM282.049 36.725V37.725H282.998L283.048 36.7776L282.049 36.725ZM268.924 36.725L268.121 37.3208L268.421 37.725H268.924V36.725ZM268.399 26.375L267.583 25.797L267.578 25.8039L268.399 26.375ZM272.974 22.1L272.383 21.2935L272.374 21.3L272.974 22.1ZM277.024 18.8L276.25 18.1668L277.024 18.8ZM276.649 14.45L276.108 15.2912L276.13 15.3053L276.153 15.3182L276.649 14.45ZM263.824 14.6L263.966 15.5899L263.981 15.5878L263.996 15.5851L263.824 14.6ZM262.249 14.825L261.25 14.8695L261.299 15.9709L262.391 15.8149L262.249 14.825ZM261.724 3.05L261.413 2.09965L260.691 2.33594L260.725 3.09454L261.724 3.05ZM290.674 3.8L290.004 4.5419L290.011 4.54819L290.674 3.8ZM267.049 53H266.049V54H267.049V53ZM267.049 39.5V38.5H266.049V39.5H267.049ZM284.149 39.5H285.149V38.5H284.149V39.5ZM284.149 53V54H285.149V53H284.149ZM293.649 15.8C293.649 19.4536 293.173 21.9725 292.345 23.4979L294.103 24.4521C295.175 22.4775 295.649 19.5464 295.649 15.8H293.649ZM292.34 23.5071C291.546 25.0077 289.965 26.6485 287.473 28.408L288.626 30.042C291.233 28.2015 293.102 26.3423 294.108 24.4429L292.34 23.5071ZM287.468 28.4113C285.522 29.8011 284.012 31.0343 282.965 32.108C282.441 32.6451 282.012 33.1629 281.702 33.6596C281.397 34.1489 281.169 34.677 281.127 35.2233L283.121 35.3767C283.129 35.273 283.186 35.0605 283.399 34.7185C283.608 34.384 283.933 33.9799 284.396 33.5045C285.324 32.5532 286.726 31.3989 288.63 30.0387L287.468 28.4113ZM281.126 35.2474L281.051 36.6724L283.048 36.7776L283.123 35.3526L281.126 35.2474ZM282.049 35.725H268.924V37.725H282.049V35.725ZM269.727 36.1292C268.717 34.7669 268.199 33.1554 268.199 31.25H266.199C266.199 33.5446 266.832 35.5831 268.121 37.3208L269.727 36.1292ZM268.199 31.25C268.199 29.2581 268.582 27.8639 269.22 26.9461L267.578 25.8039C266.617 27.1861 266.199 29.0419 266.199 31.25H268.199ZM269.215 26.953C269.974 25.8821 271.398 24.5319 273.574 22.9L272.374 21.3C270.15 22.9681 268.525 24.4679 267.583 25.797L269.215 26.953ZM273.566 22.9064C274.697 22.0765 275.612 21.3779 276.306 20.8127C276.98 20.2638 277.502 19.795 277.798 19.4332L276.25 18.1668C276.096 18.355 275.719 18.7112 275.043 19.2623C274.386 19.7971 273.501 20.4734 272.383 21.2936L273.566 22.9064ZM277.798 19.4332C278.437 18.6523 278.699 17.6529 278.699 16.55H276.699C276.699 17.3471 276.511 17.8477 276.25 18.1668L277.798 19.4332ZM278.699 16.55C278.699 15.2921 278.236 14.2048 277.145 13.5818L276.153 15.3182C276.463 15.4952 276.699 15.8079 276.699 16.55H278.699ZM277.19 13.6088C276.238 12.9967 274.842 12.775 273.199 12.775V14.775C274.756 14.775 275.661 15.0033 276.108 15.2912L277.19 13.6088ZM273.199 12.775C270.04 12.775 266.857 13.0553 263.652 13.6149L263.996 15.5851C267.091 15.0447 270.159 14.775 273.199 14.775V12.775ZM263.683 13.6101L262.108 13.835L262.391 15.8149L263.966 15.5899L263.683 13.6101ZM263.248 14.7805L262.723 3.00546L260.725 3.09454L261.25 14.8695L263.248 14.7805ZM262.035 4.00035C267.593 2.18058 273.063 1.275 278.449 1.275V-0.725C272.835 -0.725 267.155 0.219414 261.413 2.09965L262.035 4.00035ZM278.449 1.275C283.889 1.275 287.669 2.43165 290.004 4.54187L291.345 3.05812C288.479 0.468346 284.109 -0.725 278.449 -0.725V1.275ZM290.011 4.54819C292.347 6.62025 293.649 10.2689 293.649 15.8H295.649C295.649 10.0311 294.301 5.67974 291.338 3.05181L290.011 4.54819ZM268.049 53V39.5H266.049V53H268.049ZM267.049 40.5H284.149V38.5H267.049V40.5ZM283.149 39.5V53H285.149V39.5H283.149ZM284.149 52H267.049V54H284.149V52Z" fill="#FCDB64"/>
</svg>
